#!OML:ASF H:\LiuWeirdWalks\Patient Classification 1\Patient 1\Session 1\male.ASF
:FULLY-SPECIFIED
:DEGREES
518
root 3.71445 19.2945 32.0179 -6.66508 1.76707 -23.7873
lowerback 13.5847 -0.61222 16.1656
upperback 1.30082 2.17865 8.00792
thorax -6.01838 0.764705 -0.79096
lowerneck -28.2761 0.273724 4.51979
upperneck 27.2468 -0.297173 -4.04098
head 13.9971 -0.244459 -2.4525
rclavicle 4.68076e-015 -2.25124e-014
rhumerus -48.465 7.39727 -79.1561
rradius 56.838
rwrist -11.3315
rhand -15.3489 3.50363
rfingers 7.12502
rthumb 10.8282 -26.1972
lclavicle 4.68076e-015 -2.25124e-014
lhumerus -37.9861 -6.93678 81.3941
lradius 43.9939
lwrist 4.24135
lhand -16.9912 -5.52397
lfingers 7.12502
lthumb 9.24382 24.2534
rfemur -10.5758 -19.2761 32.0829
rtibia 71.4959
rfoot -7.37519 -15.7829
rtoes -9.15023
lfemur -10.19 -0.467089 2.6545
ltibia 50.2993
lfoot 2.24828 4.23557
ltoes -18.6258
519
root 3.70254 19.3307 32.1694 -6.57979 1.92172 -23.6033
lowerback 13.4501 -0.40694 16.0744
upperback 1.29852 2.39811 7.90212
thorax -5.91455 0.878743 -0.896818
lowerneck -28.6632 0.0145504 4.19173
upperneck 27.2738 -0.605809 -3.83844
head 14.071 -0.383411 -2.38141
rclavicle 1.24551e-015 1.14798e-014
rhumerus -48.5992 6.97896 -79.1029
rradius 56.6289
rwrist -11.9524
rhand -15.1868 3.33621
rfingers 7.12502
rthumb 10.9846 -26.3564
lclavicle 1.24551e-015 1.14798e-014
lhumerus -38.0789 -7.32078 81.4732
lradius 43.5835
lwrist 4.18511
lhand -16.7073 -5.44491
lfingers 7.12502
lthumb 9.51772 24.3201
rfemur -10.3026 -18.9466 32.0787
rtibia 71.0634
rfoot -7.26897 -15.9802
rtoes -9.0886
lfemur -11.2206 -0.290799 2.32061
ltibia 49.2788
lfoot 0.597183 5.8762
ltoes -18.3329
520
root 3.68894 19.3594 32.3235 -6.35816 2.06615 -23.3604
lowerback 13.2365 -0.201296 15.8049
upperback 1.16394 2.59652 7.81137
thorax -5.92349 0.97557 -0.884763
lowerneck -28.7101 -0.214314 3.91684
upperneck 27.2804 -0.87642 -3.64356
head 14.0713 -0.499927 -2.3101
rclavicle -3.32328e-014 -5.00937e-014
rhumerus -48.8973 6.72437 -79.1243
rradius 56.4251
rwrist -12.5318
rhand -15.0583 3.19131
rfingers 7.12502
rthumb 11.1086 -26.4947
lclavicle -3.32328e-014 -5.00937e-014
lhumerus -38.4096 -7.60095 81.5388
lradius 43.2054
lwrist 4.13644
lhand -16.4559 -5.41616
lfingers 7.12502
lthumb 9.76033 24.3377
rfemur -10.1806 -18.5497 32.0833
rtibia 70.6712
rfoot -7.20092 -16.247
rtoes -9.00839
lfemur -12.2287 -0.123697 1.90488
ltibia 47.7235
lfoot -1.02764 7.48716
ltoes -18.0573
521
root 3.67476 19.3778 32.4787 -6.02627 2.19442 -23.101
lowerback 12.9336 -0.012748 15.4593
upperback 0.96731 2.75174 7.71494
thorax -5.95943 1.04978 -0.827964
lowerneck -28.6173 -0.38698 3.73198
upperneck 27.2873 -1.10007 -3.45469
head 14.0469 -0.586912 -2.24516
rclavicle 1.13991e-015 7.8023e-015
rhumerus -49.2094 6.57723 -79.2347
rradius 56.1886
rwrist -13.0029
rhand -14.9671 3.09109
rfingers 7.12502
rthumb 11.1965 -26.5901
lclavicle 1.13991e-015 7.8023e-015
lhumerus -38.8358 -7.77751 81.5357
lradius 42.8456
lwrist 4.11456
lhand -16.2512 -5.42316
lfingers 7.12502
lthumb 9.95783 24.3213
rfemur -10.1882 -18.0946 32.128
rtibia 70.33
rfoot -7.16278 -16.5644
rtoes -9.02
lfemur -13.2288 0.019078 1.46386
ltibia 45.77
lfoot -2.50446 8.94822
ltoes -17.8115
522
root 3.66148 19.3832 32.6345 -5.6417 2.29425 -22.8366
lowerback 12.5365 0.0618221 14.8623
upperback 0.830151 2.69963 7.72298
thorax -5.91772 1.03859 -0.487701
lowerneck -28.6318 -0.323006 3.80803
upperneck 27.343 -1.04436 -3.45138
head 14.0762 -0.553444 -2.24725
rclavicle 2.41523e-014 2.98177e-016
rhumerus -49.2644 6.92264 -79.453
rradius 55.8817
rwrist -13.3592
rhand -14.9051 3.01413
rfingers 7.12502
rthumb 11.2563 -26.6639
lclavicle 2.41523e-014 2.98177e-016
lhumerus -39.2711 -7.41328 81.3955
lradius 42.5059
lwrist 4.0824
lhand -16.1 -5.46515
lfingers 7.12502
lthumb 10.1037 24.2723
rfemur -10.2675 -17.5932 32.1859
rtibia 70.0571
rfoot -7.15585 -16.8891
rtoes -9.01942
lfemur -14.1873 0.142491 1.01605
ltibia 43.5584
lfoot -3.68965 10.121
ltoes -17.7184
523
root 3.64984 19.3739 32.7901 -5.3003 2.36094 -22.5566
lowerback 12.1707 0.0897367 14.2574
upperback 0.690432 2.59527 7.71788
thorax -5.89956 1.0008 -0.14852
lowerneck -28.5603 -0.19521 3.97517
upperneck 27.4076 -0.923947 -3.48082
head 14.0945 -0.486844 -2.26418
rclavicle 1.75521e-014 1.63003e-014
rhumerus -49.2947 7.36108 -79.7375
rradius 55.5231
rwrist -13.5565
rhand -14.8586 2.97436
rfingers 7.12502
rthumb 11.3011 -26.7012
lclavicle 1.75521e-014 1.63003e-014
lhumerus -39.7731 -7.00243 81.2048
lradius 42.1891
lwrist 4.21798
lhand -16.0395 -5.44716
lfingers 7.12502
lthumb 10.162 24.2874
rfemur -10.3132 -17.0793 32.1979
rtibia 69.8658
rfoot -7.17015 -17.187
rtoes -9.10066
lfemur -15.0426 0.237 0.554613
ltibia 41.2415
lfoot -4.48432 10.9028
ltoes -17.8739
524
root 3.64053 19.3482 32.9453 -5.08968 2.38658 -22.241
lowerback 11.927 0.0742684 13.6682
upperback 0.582524 2.45784 7.68589
thorax -5.91387 0.945534 0.157606
lowerneck -28.4453 -0.0392298 4.16164
upperneck 27.4917 -0.770904 -3.5055
head 14.1145 -0.402942 -2.27597
rclavicle 1.53375e-014 5.09883e-014
rhumerus -49.2789 7.83504 -80.055
rradius 55.1134
rwrist -13.59
rhand -14.804 2.95281
rfingers 7.12502
rthumb 11.3538 -26.7198
lclavicle 1.53375e-014 5.09883e-014
lhumerus -40.302 -6.59211 80.9748
lradius 41.8961
lwrist 4.47283
lhand -16.0504 -5.37687
lfingers 7.12502
lthumb 10.1516 24.3582
rfemur -10.224 -16.5763 32.0985
rtibia 69.7616
rfoot -7.20076 -17.4261
rtoes -9.10326
lfemur -15.7254 0.314359 0.0587767
ltibia 38.9479
lfoot -4.87862 11.2703
ltoes -18.2285
525
root 3.63505 19.3065 33.1003 -4.97173 2.37959 -21.9206
lowerback 11.7531 0.022081 13.1304
upperback 0.485333 2.29254 7.64421
thorax -5.95317 0.874487 0.430367
lowerneck -28.2264 0.138946 4.37129
upperneck 27.5723 -0.578545 -3.5661
head 14.1141 -0.304708 -2.29726
rclavicle -8.51357e-015 -2.68359e-015
rhumerus -49.2479 8.34972 -80.3792
rradius 54.659
rwrist -13.4403
rhand -14.7361 2.9273
rfingers 7.12502
rthumb 11.4193 -26.7417
lclavicle -8.51357e-015 -2.68359e-015
lhumerus -40.8876 -6.19253 80.734
lradius 41.6259
lwrist 4.85154
lhand -16.1249 -5.25769
lfingers 7.12502
lthumb 10.0797 24.4809
rfemur -10.0605 -16.0979 31.9306
rtibia 69.7518
rfoot -7.23701 -17.6018
rtoes -9.12793
lfemur -16.3049 0.404475 -0.440175
ltibia 36.8046
lfoot -4.93362 11.2524
ltoes -18.7657
526
root 3.62903 19.2486 33.2563 -5.15007 2.36867 -21.5465
lowerback 11.8744 0.0393865 12.8728
upperback 0.420841 2.2996 7.43749
thorax -6.09011 0.873544 0.344805
lowerneck -28.0038 0.103263 4.33329
upperneck 27.6723 -0.649622 -3.42399
head 14.1093 -0.315595 -2.24668
rclavicle 3.12899e-014 9.74045e-014
rhumerus -49.3154 8.30696 -80.6183
rradius 54.1914
rwrist -13.1266
rhand -14.6568 2.92725
rfingers 7.12502
rthumb 11.4958 -26.7375
lclavicle 3.12899e-014 9.74045e-014
lhumerus -41.3852 -6.39115 80.5684
lradius 41.3437
lwrist 5.36362
lhand -16.2391 -5.1181
lfingers 7.12502
lthumb 9.96953 24.6258
rfemur -9.57762 -15.7127 31.5794
rtibia 69.827
rfoot -7.31602 -17.7086
rtoes -9.08937
lfemur -16.5758 0.479586 -0.994118
ltibia 34.8987
lfoot -4.76515 10.9208
ltoes -19.3699
527
root 3.62463 19.176 33.413 -5.41301 2.36664 -21.2051
lowerback 12.0564 0.0455728 12.7136
upperback 0.348958 2.31638 7.22521
thorax -6.26526 0.872551 0.19857
lowerneck -27.6691 0.0336778 4.24329
upperneck 27.7348 -0.739031 -3.28845
head 14.0648 -0.34145 -2.1913
rclavicle -1.33558e-015 3.27001e-014
rhumerus -49.4153 8.18009 -80.8159
rradius 53.7162
rwrist -12.7544
rhand -14.563 2.91136
rfingers 7.12502
rthumb 11.5862 -26.7484
lclavicle -1.33558e-015 3.27001e-014
lhumerus -41.9147 -6.6768 80.4232
lradius 41.0601
lwrist 5.84824
lhand -16.3564 -5.01336
lfingers 7.12502
lthumb 9.85631 24.7359
rfemur -9.04858 -15.3947 31.2138
rtibia 69.9959
rfoot -7.40186 -17.7738
rtoes -9.07576
lfemur -16.7827 0.5622 -1.51172
ltibia 33.2996
lfoot -4.42956 10.4016
ltoes -19.9784
528
root 3.62018 19.0903 33.5712 -5.69599 2.39856 -20.9257
lowerback 12.1622 -0.0482265 12.4188
upperback 0.328664 2.16721 7.13194
thorax -6.36515 0.802012 0.281997
lowerneck -27.3167 0.124958 4.33775
upperneck 27.7491 -0.60706 -3.36313
head 14.0051 -0.28434 -2.20797
rclavicle 1.01442e-014 2.95195e-014
rhumerus -49.3703 8.38891 -81.0322
rradius 53.2282
rwrist -12.4496
rhand -14.4854 2.89166
rfingers 7.12502
rthumb 11.661 -26.7638
lclavicle 1.01442e-014 2.95195e-014
lhumerus -42.4654 -6.58294 80.2044
lradius 40.7682
lwrist 6.19177
lhand -16.4016 -4.99242
lfingers 7.12502
lthumb 9.8127 24.7589
rfemur -8.56068 -15.1508 30.8942
rtibia 70.2638
rfoot -7.52093 -17.8185
rtoes -9.08829
lfemur -16.9878 0.640841 -1.95741
ltibia 32.0213
lfoot -3.92846 9.75504
ltoes -20.4866
529
root 3.6154 18.9922 33.7299 -5.9739 2.45222 -20.6899
lowerback 12.2214 -0.119008 12.2288
upperback 0.296281 2.05523 7.03346
thorax -6.4446 0.747226 0.298043
lowerneck -26.9182 0.162711 4.36321
upperneck 27.7195 -0.524404 -3.42265
head 13.9149 -0.254009 -2.21501
rclavicle -1.2921e-014 2.37548e-014
rhumerus -49.3503 8.4471 -81.1855
rradius 52.7636
rwrist -12.2052
rhand -14.4222 2.88749
rfingers 7.12502
rthumb 11.722 -26.7645
lclavicle -1.2921e-014 2.37548e-014
lhumerus -42.9758 -6.60199 80.0111
lradius 40.4533
lwrist 6.40022
lhand -16.3439 -4.99306
lfingers 7.12502
lthumb 9.86837 24.7557
rfemur -8.15241 -14.9744 30.6134
rtibia 70.642
rfoot -7.66915 -17.8655
rtoes -9.14544
lfemur -17.2014 0.690754 -2.34548
ltibia 31.0613
lfoot -3.24365 9.00974
ltoes -20.8862
530
root 3.61067 18.8821 33.8877 -6.19991 2.50618 -20.4851
lowerback 12.1581 -0.235978 11.9192
upperback 0.350468 1.83801 7.03588
thorax -6.3753 0.655412 0.504992
lowerneck -26.7498 0.317395 4.48495
upperneck 27.7043 -0.277556 -3.62551
head 13.886 -0.16416 -2.26796
rclavicle 1.6847e-014 2.92213e-014
rhumerus -49.0936 8.73647 -81.3004
rradius 52.3152
rwrist -12.1028
rhand -14.366 2.88791
rfingers 7.12502
rthumb 11.7762 -26.761
lclavicle 1.6847e-014 2.92213e-014
lhumerus -43.3396 -6.27265 79.7599
lradius 40.1152
lwrist 6.37667
lhand -16.1373 -5.01357
lfingers 7.12502
lthumb 10.0677 24.7256
rfemur -7.89082 -14.8298 30.3719
rtibia 71.1479
rfoot -7.89539 -17.9177
rtoes -9.18857
lfemur -17.4471 0.720387 -2.68458
ltibia 30.3872
lfoot -2.32222 8.11331
ltoes -21.2109
531
root 3.60725 18.7596 34.0436 -6.37778 2.52224 -20.2839
lowerback 12.0328 -0.296099 11.7199
upperback 0.408691 1.69848 7.00893
thorax -6.25513 0.599412 0.606927
lowerneck -26.6291 0.413899 4.53641
upperneck 27.6721 -0.0985897 -3.79192
head 13.8568 -0.106019 -2.30754
rclavicle -6.36422e-015 -1.81888e-014
rhumerus -48.822 8.84526 -81.3467
rradius 51.9183
rwrist -12.0958
rhand -14.3154 2.882
rfingers 7.12502
rthumb 11.825 -26.7641
lclavicle -6.36422e-015 -1.81888e-014
lhumerus -43.5857 -6.09543 79.5499
lradius 39.7473
lwrist 6.30189
lhand -15.8328 -4.93644
lfingers 7.12502
lthumb 10.3615 24.7883
rfemur -7.76947 -14.6937 30.1372
rtibia 71.7866
rfoot -8.19517 -17.9713
rtoes -9.23529
lfemur -17.7044 0.748507 -3.00521
ltibia 29.9823
lfoot -1.18119 6.98853
ltoes -21.0164
532
root 3.60612 18.6243 34.1971 -6.53393 2.45824 -20.0801
lowerback 11.9286 -0.158869 11.9823
upperback 0.439213 1.8788 6.78707
thorax -6.13337 0.682053 0.195111
lowerneck -26.6338 0.199299 4.19496
upperneck 27.6997 -0.320664 -3.60788
head 13.8583 -0.211558 -2.21877
rclavicle 1.93101e-014 2.16675e-014
rhumerus -48.6797 8.17107 -81.2401
rradius 51.6302
rwrist -12.1442
rhand -14.2494 2.86365
rfingers 7.12502
rthumb 11.8886 -26.7788
lclavicle 1.93101e-014 2.16675e-014
lhumerus -43.5734 -6.67298 79.4681
lradius 39.3229
lwrist 6.17347
lhand -15.4338 -4.77127
lfingers 7.12502
lthumb 10.7464 24.9339
rfemur -7.75439 -14.5355 29.8918
rtibia 72.5576
rfoot -8.56228 -18.0217
rtoes -9.26133
lfemur -17.9297 0.84556 -3.32073
ltibia 29.8584
lfoot -0.025173 5.68486
ltoes -19.8077
